<?xml version="1.0" standalone="no"?>
<!DOCTYPE svg PUBLIC "-//W3C//DTD SVG 20010904//EN"
 "http://www.w3.org/TR/2001/REC-SVG-20010904/DTD/svg10.dtd">
<svg version="1.0" xmlns="http://www.w3.org/2000/svg"
 width="700.000000pt" height="700.000000pt" viewBox="0 0 700.000000 700.000000"
 preserveAspectRatio="xMidYMid meet">
<metadata>
Created by potrace 1.11, written by Peter Selinger 2001-2013
</metadata>
<g transform="translate(0.000000,700.000000) scale(0.100000,-0.100000)"
fill="#000000" stroke="none">
<path d="M3437 6525 c-1 -1 -40 -5 -87 -8 -47 -4 -98 -9 -115 -12 -205 -39
-414 -147 -570 -295 -123 -115 -245 -280 -245 -330 0 -38 20 -51 87 -57 32 -3
59 -6 60 -7 1 -1 -19 -34 -45 -73 -45 -68 -51 -73 -117 -99 -84 -32 -99 -45
-90 -73 8 -26 30 -27 95 -2 l50 19 1 -51 c1 -29 1 -58 0 -65 -5 -32 48 -57 65
-31 4 6 7 52 8 103 l2 91 48 70 c27 39 50 71 51 73 1 2 16 -23 33 -55 19 -38
39 -61 55 -67 31 -11 45 -1 97 70 207 279 535 393 840 293 235 -77 415 -266
474 -495 49 -189 -3 -420 -136 -607 l-20 -27 -231 2 -231 3 -1 108 -1 107 39
38 c133 127 107 330 -53 413 -61 32 -167 33 -226 2 -93 -50 -145 -140 -138
-246 5 -71 23 -110 79 -163 l43 -41 -1 -112 0 -111 -256 -1 c-141 0 -652 -1
-1136 -2 l-880 -2 -36 -23 c-94 -58 -86 -177 16 -229 17 -9 54 -15 91 -15 73
0 74 14 -4 -143 -30 -60 -96 -195 -147 -300 -51 -104 -150 -307 -220 -450
-240 -490 -377 -770 -443 -905 -36 -74 -69 -137 -74 -141 -4 -3 -37 -5 -73 -4
-36 1 -68 -1 -70 -5 -7 -11 22 -109 40 -136 113 -174 522 -359 880 -399 28 -4
68 -8 90 -11 134 -16 418 4 565 40 14 3 36 8 50 11 137 25 416 147 530 232 83
62 100 78 128 117 25 36 56 135 46 145 -3 3 -39 5 -82 5 l-77 1 -95 191 c-52
105 -146 297 -209 425 -63 129 -182 371 -264 539 -295 603 -377 772 -377 780
0 6 1170 7 1695 2 l161 -2 2 -24 c1 -22 -7 -27 -109 -60 -393 -127 -580 -312
-582 -576 0 -117 55 -261 131 -344 42 -44 141 -112 228 -155 83 -40 262 -101
300 -101 12 0 24 -6 26 -12 4 -11 3 -283 -1 -298 0 -3 -36 -23 -79 -43 -160
-78 -258 -172 -323 -310 -58 -124 -40 -227 60 -350 58 -72 164 -144 286 -194
l62 -25 1 -185 0 -185 -21 6 c-252 72 -297 72 -297 5 0 -28 27 -55 140 -139
18 -14 38 -30 44 -36 7 -6 39 -30 71 -52 l60 -42 1 -399 c1 -220 -1 -400 -5
-399 -3 0 -77 0 -164 -1 l-158 -1 3 -107 3 -107 598 -1 c330 0 603 2 608 5 4
3 7 50 6 105 l-2 100 -172 3 -171 2 2 390 c1 214 4 390 6 392 3 2 22 13 43 23
56 29 140 107 177 165 112 174 69 402 -107 565 -25 23 -62 53 -83 66 l-38 24
0 75 c0 41 4 78 9 81 15 9 159 0 209 -12 204 -53 300 -252 336 -694 3 -44 8
-81 9 -83 8 -9 185 -6 188 3 2 6 3 411 3 900 l-1 890 -95 0 -95 0 -6 -60 c-4
-33 -9 -87 -12 -120 -26 -267 -106 -426 -247 -489 -71 -32 -86 -36 -165 -42
-33 -2 -75 -6 -92 -8 -40 -4 -44 11 -5 20 15 4 69 27 121 52 193 93 297 252
287 434 -9 150 -147 291 -378 386 l-66 27 1 260 2 260 113 37 c200 66 353 162
537 339 l31 29 64 -19 c219 -63 319 -182 389 -466 30 -123 44 -222 57 -405 4
-52 8 -102 10 -110 1 -8 3 -18 3 -22 1 -4 44 -7 96 -6 l95 0 0 523 0 522 344
0 c312 0 344 -1 338 -16 -3 -9 -30 -65 -60 -126 -30 -60 -99 -202 -154 -315
-55 -113 -147 -299 -203 -415 -56 -115 -162 -331 -235 -480 -73 -148 -166
-340 -207 -425 -41 -85 -77 -157 -79 -159 -2 -2 -35 -5 -74 -6 -38 0 -71 -3
-74 -6 -8 -8 21 -108 39 -136 9 -14 29 -37 43 -52 29 -29 147 -121 156 -121 3
0 27 -13 53 -28 164 -97 482 -190 704 -207 65 -5 278 -5 324 0 113 12 153 17
185 25 19 5 49 11 65 13 56 8 190 49 290 89 202 80 371 191 431 283 13 19 43
114 44 135 0 3 -37 5 -82 5 l-83 0 -87 175 c-84 168 -166 336 -464 945 -319
653 -394 808 -394 815 0 3 32 7 70 8 70 1 98 10 133 41 21 18 47 73 43 93 -8
48 -30 86 -63 108 l-37 25 -475 2 c-1114 3 -1004 1 -995 21 28 64 66 192 78
268 15 94 18 278 5 348 -4 22 -10 57 -13 76 -12 75 -72 223 -133 324 -172 287
-452 490 -773 562 -61 14 -267 43 -273 39z m-1952 -2650 c45 -93 139 -285 207
-425 306 -624 369 -754 371 -764 1 -7 -279 -10 -881 -11 -485 0 -882 3 -882 7
0 8 88 191 280 583 159 324 309 630 477 975 l125 255 110 -225 c61 -124 147
-301 193 -395z m4630 -20 c45 -93 134 -276 198 -405 289 -592 369 -756 370
-765 1 -6 -327 -9 -880 -10 -486 0 -883 3 -883 6 0 7 113 242 307 639 283 576
362 737 465 950 l110 225 115 -235 c63 -129 152 -311 198 -405z m-3007 99 l2
-96 -43 25 c-52 30 -77 69 -61 94 10 17 82 72 94 73 3 0 7 -43 8 -96z"/>
</g>
</svg>
